<?xml version="1.0" encoding="UTF-8" standalone="no"?>
<!-- Created with Inkscape (http://www.inkscape.org/) -->

<svg
   xmlns:dc="http://purl.org/dc/elements/1.1/"
   xmlns:cc="http://creativecommons.org/ns#"
   xmlns:rdf="http://www.w3.org/1999/02/22-rdf-syntax-ns#"
   xmlns:svg="http://www.w3.org/2000/svg"
   xmlns="http://www.w3.org/2000/svg"
   xmlns:xlink="http://www.w3.org/1999/xlink"
   xmlns:sodipodi="http://sodipodi.sourceforge.net/DTD/sodipodi-0.dtd"
   xmlns:inkscape="http://www.inkscape.org/namespaces/inkscape"
   width="629.93726"
   height="250.71959"
   id="svg2"
   version="1.1"
   inkscape:version="0.48.3.1 r9886"
   sodipodi:docname="simpy-logo.svg"
   inkscape:export-filename="/home/stefan/simpy-logo.png"
   inkscape:export-xdpi="171.45"
   inkscape:export-ydpi="171.45">
  <defs
     id="defs4">
    <linearGradient
       id="linearGradient3038">
      <stop
         id="stop3040"
         offset="0"
         style="stop-color:#88a113;stop-opacity:1;" />
      <stop
         style="stop-color:#6a7d0f;stop-opacity:1;"
         offset="0.44841731"
         id="stop3042" />
      <stop
         style="stop-color:#606468;stop-opacity:1;"
         offset="0.52041292"
         id="stop3044" />
      <stop
         id="stop3046"
         offset="1"
         style="stop-color:#303234;stop-opacity:1;" />
    </linearGradient>
    <linearGradient
       id="linearGradient3950">
      <stop
         style="stop-color:#88a113;stop-opacity:1;"
         offset="0"
         id="stop3952" />
      <stop
         style="stop-color:#6a7d0f;stop-opacity:1;"
         offset="1"
         id="stop3954" />
    </linearGradient>
    <linearGradient
       id="linearGradient3942">
      <stop
         style="stop-color:#606468;stop-opacity:1;"
         offset="0"
         id="stop3944" />
      <stop
         style="stop-color:#434649;stop-opacity:1;"
         offset="1"
         id="stop3946" />
    </linearGradient>
    <linearGradient
       id="linearGradient3834">
      <stop
         style="stop-color:#88a113;stop-opacity:1;"
         offset="0"
         id="stop3836" />
      <stop
         id="stop3844"
         offset="0.44841731"
         style="stop-color:#6a7d0f;stop-opacity:1;" />
      <stop
         id="stop3842"
         offset="0.50548118"
         style="stop-color:#606468;stop-opacity:1;" />
      <stop
         style="stop-color:#303234;stop-opacity:1;"
         offset="1"
         id="stop3838" />
    </linearGradient>
    <linearGradient
       inkscape:collect="always"
       xlink:href="#linearGradient3942"
       id="linearGradient3948"
       x1="298.7186"
       y1="666.83936"
       x2="298.7186"
       y2="768.66669"
       gradientUnits="userSpaceOnUse" />
    <linearGradient
       inkscape:collect="always"
       xlink:href="#linearGradient3950"
       id="linearGradient3956"
       x1="514.48657"
       y1="626.78436"
       x2="514.48657"
       y2="768.94226"
       gradientUnits="userSpaceOnUse" />
    <linearGradient
       inkscape:collect="always"
       xlink:href="#linearGradient3834"
       id="linearGradient3963"
       gradientUnits="userSpaceOnUse"
       gradientTransform="translate(3.1932698,-32.99779)"
       x1="66.679451"
       y1="66.2714"
       x2="165.25874"
       y2="256.82608" />
    <filter
       id="filter3031"
       inkscape:label="Drop Shadow"
       color-interpolation-filters="sRGB">
      <feFlood
         id="feFlood3033"
         flood-opacity="0.8"
         flood-color="rgb(0,0,0)"
         result="flood" />
      <feComposite
         id="feComposite3035"
         in2="SourceGraphic"
         in="flood"
         operator="in"
         result="composite1" />
      <feGaussianBlur
         id="feGaussianBlur3037"
         stdDeviation="2"
         result="blur" />
      <feOffset
         id="feOffset3039"
         dx="0"
         dy="2"
         result="offset" />
      <feComposite
         id="feComposite3041"
         in2="offset"
         in="SourceGraphic"
         operator="over"
         result="composite2" />
    </filter>
    <linearGradient
       inkscape:collect="always"
       xlink:href="#linearGradient3942"
       id="linearGradient3064"
       gradientUnits="userSpaceOnUse"
       x1="298.7186"
       y1="666.83936"
       x2="298.7186"
       y2="768.66669" />
    <linearGradient
       inkscape:collect="always"
       xlink:href="#linearGradient3834"
       id="linearGradient3066"
       gradientUnits="userSpaceOnUse"
       gradientTransform="translate(3.1932698,-32.99779)"
       x1="66.679451"
       y1="66.2714"
       x2="165.25874"
       y2="256.82608" />
    <linearGradient
       inkscape:collect="always"
       xlink:href="#linearGradient3950"
       id="linearGradient3068"
       gradientUnits="userSpaceOnUse"
       x1="514.48657"
       y1="626.78436"
       x2="514.48657"
       y2="768.94226" />
    <linearGradient
       inkscape:collect="always"
       xlink:href="#linearGradient3038"
       id="linearGradient3036"
       gradientUnits="userSpaceOnUse"
       gradientTransform="translate(3.1932698,-32.99779)"
       x1="66.679451"
       y1="66.2714"
       x2="165.25874"
       y2="256.82608" />
  </defs>
  <sodipodi:namedview
     id="base"
     pagecolor="#ffffff"
     bordercolor="#666666"
     borderopacity="1.0"
     inkscape:pageopacity="0"
     inkscape:pageshadow="2"
     inkscape:zoom="1.8359928"
     inkscape:cx="314.96863"
     inkscape:cy="125.35979"
     inkscape:document-units="px"
     inkscape:current-layer="g3057"
     showgrid="false"
     inkscape:snap-grids="true"
     inkscape:snap-midpoints="false"
     inkscape:snap-object-midpoints="false"
     showguides="true"
     inkscape:window-width="1680"
     inkscape:window-height="1006"
     inkscape:window-x="0"
     inkscape:window-y="21"
     inkscape:window-maximized="1"
     fit-margin-top="0"
     fit-margin-left="0"
     fit-margin-right="0"
     fit-margin-bottom="0">
    <inkscape:grid
       type="xygrid"
       id="grid3048"
       empspacing="5"
       visible="true"
       enabled="true"
       snapvisiblegridlinesonly="true"
       originx="-223.24193px"
       originy="-259.17373px" />
  </sodipodi:namedview>
  <metadata
     id="metadata7">
    <rdf:RDF>
      <cc:Work
         rdf:about="">
        <dc:format>image/svg+xml</dc:format>
        <dc:type
           rdf:resource="http://purl.org/dc/dcmitype/StillImage" />
        <dc:title></dc:title>
      </cc:Work>
    </rdf:RDF>
  </metadata>
  <g
     inkscape:label="Layer 1"
     inkscape:groupmode="layer"
     id="layer1"
     transform="translate(-223.24193,-542.46882)">
    <text
       xml:space="preserve"
       style="font-size:40px;font-style:normal;font-weight:normal;line-height:125%;letter-spacing:0px;word-spacing:0px;fill:#000000;fill-opacity:1;stroke:none;font-family:Sans"
       x="38.548065"
       y="388.05051"
       id="text2997"
       sodipodi:linespacing="125%"><tspan
         sodipodi:role="line"
         id="tspan2999"
         x="38.548065"
         y="388.05051" /></text>
    <g
       style="font-size:40px;font-style:normal;font-weight:normal;line-height:125%;letter-spacing:0px;word-spacing:0px;fill:#000000;fill-opacity:1;stroke:none;font-family:Sans"
       id="text2993-0" />
    <g
       id="g3057"
       transform="translate(207.52039,-18.716523)"
       inkscape:export-xdpi="64.577858"
       inkscape:export-ydpi="64.577858">
      <text
         sodipodi:linespacing="125%"
         id="text2993"
         y="767.36218"
         x="190"
         style="font-size:40px;font-style:normal;font-weight:normal;line-height:125%;letter-spacing:0px;word-spacing:0px;fill:url(#linearGradient3064);fill-opacity:1;stroke:none;filter:url(#filter3031);font-family:Sans"
         xml:space="preserve"><tspan
           style="font-size:192px;font-style:normal;font-variant:normal;font-weight:normal;font-stretch:normal;text-align:start;line-height:125%;writing-mode:lr-tb;text-anchor:start;fill:url(#linearGradient3064);fill-opacity:1;stroke:none;font-family:Aller Display;-inkscape-font-specification:Aller Display"
           y="767.36218"
           x="190"
           id="tspan2995"
           sodipodi:role="line">im</tspan></text>
      <path
         sodipodi:nodetypes="ccccsccccccccccscsccccccsccccsccccscccccccccccccccccsassacsssss"
         inkscape:connector-curvature="0"
         id="rect3026-4-3-99-0"
         transform="translate(6.4942302,559.26614)"
         d="m 108.09375,22.8125 c -9.72807,1.9e-4 -18.493141,1.28394 -26.34375,3.84375 -7.850709,2.38952 -14.618035,6.05085 -20.25,11 -5.461357,4.77884 -9.70927,10.69033 -12.78125,17.6875 -3.072014,6.99748 -4.625012,15.01731 -4.625,24.0625 -1.2e-5,7.33879 0.966404,13.72629 2.84375,19.1875 2.047983,5.46144 4.85348,10.32719 8.4375,14.59375 3.583973,4.0961 7.831885,7.67809 12.78125,10.75 5.119959,3.07209 10.762203,5.71892 16.90625,7.9375 l 14.34375,5.375 c 2.2186,0.85341 4.35817,1.78857 6.40625,2.8125 2.21859,0.8534 4.16825,1.97849 5.875,3.34375 1.70658,1.3654 3.06966,3.07707 4.09375,5.125 1.02391,1.8774 1.53116,4.17564 1.53125,6.90625 -9e-5,6.48538 -2.457,11.08188 -7.40625,13.8125 -4.77874,2.56004 -11.51482,3.84379 -20.21875,3.84375 -11.605379,4e-5 -25.267449,-3.42329 -40.96875,-10.25 -12.584383,10.92146 -17.038041,19.42466 -20.96875,31.125 -3.930709,11.70034 -3.574764,13.65584 -0.96875,18.40625 1.484538,1.48635 6.71875,4.71875 6.71875,4.71875 0,0 5.227208,3.23777 7.21875,3.90625 7.127711,0.0957 16.600634,-13.71727 20.0625,-11.8125 1.651845,0.57036 3.125108,1.02862 4.3125,1.28125 1.901007,0.39605 3.876882,0.75815 5.90625,1.0625 2.784816,1.04795 7.812471,19.04184 9.59375,19.5625 2.016358,0.58937 8.1875,0.625 8.1875,0.625 0,0 6.13256,0.15496 8.1875,-0.28125 1.761,-0.37387 6.94255,-17.82101 10.5,-19.1875 3.95574,-0.44608 7.71836,-1.09831 11.28125,-1.9375 3.30219,-0.14236 16.19813,12.59264 17.90625,12.125 2.0262,-0.55473 7.40625,-3.5 7.40625,-3.5 0,0 5.40251,-2.91251 6.96875,-4.3125 1.30092,-1.16291 -2.03908,-17.93791 -0.46875,-21.375 1.91022,-1.99065 3.61911,-4.09323 5.15625,-6.3125 2.52682,-2.11397 19.71401,-2.73022 20.53125,-4.21875 1.011,-1.84148 2.65625,-7.75 2.65625,-7.75 0,0 1.63495,-5.93219 1.71875,-8.03125 0.0666,-1.67221 -13.92451,-10.59944 -15.1875,-14.03125 -0.0263,-3.38869 -0.26167,-6.54468 -0.65625,-9.5 0.48298,-3.51414 12.23885,-16.66357 11.71875,-18.375 -0.61086,-2.00998 -3.71875,-7.3125 -3.71875,-7.3125 0,0 -3.057,-5.31706 -4.5,-6.84375 -1.22484,-1.29552 -18.89314,2.84177 -21.71875,1.0625 -2.66516,-1.99823 -5.57174,-3.81703 -8.75,-5.40625 -5.6321,-3.07189 -12.05085,-6.0673 -19.21875,-8.96875 L 106.3125,92.71875 c -4.43741,-1.70655 -8.28865,-3.76679 -11.53125,-6.15625 -3.242726,-2.38921 -4.843808,-6.05053 -4.84375,-11 -5.8e-5,-2.90119 0.586525,-5.27877 1.78125,-7.15625 1.194606,-2.04785 2.7476,-3.60085 4.625,-4.625 2.04793,-1.19452 4.26685,-2.05035 6.65625,-2.5625 2.55992,-0.51185 5.20675,-0.74985 7.9375,-0.75 8.87457,1.5e-4 16.15494,-0.206076 19.67658,2.341943 3.15842,2.285215 15.77891,9.056461 24.54217,9.533057 5.98718,0.325617 13.00512,-0.550583 17.375,-4.65625 8.19149,-7.696216 -0.512,-23.48581 -20.21875,-36.40625 -8.34845,-5.47354 -12.58678,-4.576475 -19.125,-5.90625 -8.2394,-1.675769 -16.38984,-2.56231 -25.09375,-2.5625 z m 41,16.15625 c 3.93084,0 7.125,3.194163 7.125,7.125 0,3.930836 -3.19416,7.09375 -7.125,7.09375 -3.93083,0 -7.09375,-3.162914 -7.09375,-7.09375 0,-3.930837 3.16292,-7.125 7.09375,-7.125 z"
         style="fill:url(#linearGradient3036);fill-opacity:1;stroke:none;filter:url(#filter3031)" />
      <text
         sodipodi:linespacing="125%"
         id="text2993-9"
         y="767.36218"
         x="405"
         style="font-size:40px;font-style:normal;font-weight:normal;line-height:125%;letter-spacing:0px;word-spacing:0px;fill:url(#linearGradient3068);fill-opacity:1;stroke:none;filter:url(#filter3031);font-family:Sans"
         xml:space="preserve"><tspan
           style="font-size:192px;font-style:normal;font-variant:normal;font-weight:normal;font-stretch:normal;text-align:start;line-height:125%;writing-mode:lr-tb;text-anchor:start;fill:url(#linearGradient3068);fill-opacity:1;stroke:none;font-family:Aller Display;-inkscape-font-specification:Aller Display"
           y="767.36218"
           x="405"
           id="tspan2995-3"
           sodipodi:role="line">Py</tspan></text>
    </g>
  </g>
</svg>
